<svg width="42" height="77" viewBox="0 0 42 77" fill="none" xmlns="http://www.w3.org/2000/svg">
<path d="M20.7812 62.25C15.9271 62.25 12.0729 60.7396 9.21875 57.7188C6.40625 54.7396 5 51.0417 5 46.625L10.9375 43.8125H11.25V46.625C11.25 49.375 12 51.6354 13.5 53.4062C15.3125 55.5521 17.7396 56.625 20.7812 56.625C23.7604 56.625 26.1875 55.5521 28.0625 53.4062C29.5625 51.6771 30.3125 49.4167 30.3125 46.625C30.3125 43.9375 29.6979 41.8854 28.4688 40.4688C26.7604 38.5104 24.1875 37.5312 20.75 37.5312C16.8958 37.5312 13.625 36.2812 10.9375 33.7812C8.85417 31.8438 7.8125 29.1042 7.8125 25.5625V22.5625L20.7812 12.5625C24.7188 12.8333 27.75 13.8333 29.875 15.5625C32.4583 17.6667 33.75 20.7604 33.75 24.8438L27.8125 27.6562H27.5V24.8438C27.5 22.2812 26.8229 20.4062 25.4688 19.2188C24.1562 18.0729 22.5938 17.5 20.7812 17.5C18.7604 17.5 17.1354 18.1354 15.9062 19.4062C14.6771 20.6771 14.0625 22.4896 14.0625 24.8438C14.0625 27.1146 14.5312 28.7708 15.4688 29.8125C16.7188 31.2083 18.4792 31.9062 20.75 31.9062C25.7292 31.9062 29.5938 33.0938 32.3438 35.4688C35.1562 37.9062 36.5625 41.6042 36.5625 46.5625V50.0625L20.7812 62.25Z" fill="white"/>
</svg>
